<svg width="320" height="320" viewBox="0 0 320 320" fill="none" xmlns="http://www.w3.org/2000/svg">
<path fill-rule="evenodd" clip-rule="evenodd" d="M178.938 282.583C192.733 282.69 206.524 282.065 220.253 280.71L220.288 281.136C217.462 281.404 214.636 281.654 211.81 281.947C203.088 282.861 194.329 283.061 185.573 283.288C179.111 283.428 172.657 282.787 166.348 281.381C158.813 279.744 151.125 279.208 143.477 278.375C128.787 276.777 114.216 274.466 99.9587 270.481C98.8359 270.167 97.5378 269.983 96.6318 269.457C94.3849 268.153 91.7925 267.604 89.6945 265.95C88.5775 265.07 86.9726 264.914 85.8155 263.839C82.6756 260.925 78.7818 259.184 75.108 257.081C69.4417 253.839 63.6718 250.527 59.558 245.368C52.1709 236.105 45.6342 226.22 41.961 214.828C38.1598 203.038 37.6899 191.129 41.2459 179.064C42.7764 173.869 43.9445 168.61 46.8592 163.954C48.413 161.577 50.1232 159.305 51.9787 157.155C54.1498 154.538 55.9321 151.631 58.5348 149.328C62.1362 146.14 65.7433 143.001 69.6436 140.163C73.74 137.184 75.1928 132.648 76.124 127.839C77.2753 121.897 77.7697 115.838 79.4697 109.991C84.2236 93.6415 93.6342 80.7965 107.645 71.077C114.718 66.1703 122.212 62.0224 129.541 57.5793C136.422 53.4082 143.639 49.7725 150.478 45.5586C165.932 36.0404 182.542 35.9245 199.579 38.6744C207.143 39.8956 214.31 42.5672 221.402 45.4569C229.148 48.6128 237.02 51.4398 244.11 56.0247C256.858 64.2718 266.877 74.8493 272.826 89.0262C275.69 95.8527 278.547 102.684 279.944 109.986C281.394 117.128 281.563 124.471 280.442 131.672C278.999 140.478 276.373 149.019 274.864 157.804C274.586 159.485 274.456 161.188 274.476 162.892C274.499 167.392 273.897 171.898 274.355 176.388C274.909 181.819 275.768 187.22 276.308 192.652C277.081 200.953 276.98 209.313 276.007 217.594C275.134 225.395 273.61 233.109 271.452 240.656C270.204 245.171 268.409 249.517 266.108 253.597C265.013 255.506 264.53 258.097 262.026 259.021C257.795 266.067 250.513 269.222 243.899 273.219C241 274.972 237.786 276.068 234.744 277.504C232.266 278.673 229.685 278.605 227.179 279.119C220.342 280.526 213.358 280.902 206.406 281.445C197.276 282.161 188.12 282.384 178.938 282.583Z" fill="#4ECB71"/>
<path fill-rule="evenodd" clip-rule="evenodd" d="M159.828 0.287907C159.627 0.343714 159.31 0.305755 159.342 0.100056C159.462 0.0385241 159.596 -0.0247892 159.726 0.00981151C159.857 0.0444122 159.941 0.232922 159.837 0.3177L159.828 0.287907Z" fill="#00160A"/>
<path fill-rule="evenodd" clip-rule="evenodd" d="M160.849 117.309L161.347 117.516C164.043 118.628 166.083 119.251 167.467 119.387C168.934 119.531 171.077 119.265 173.895 118.589L173.841 119.288C173.38 125.412 173.398 130.034 173.895 133.155C174.411 136.394 175.633 139.211 177.562 141.606C175.395 144.029 172.132 146.473 176.157 157.792C178.89 165.476 174.249 192.675 173.841 215.531C173.648 226.347 175.907 236.287 177.562 242.548C181.515 257.507 187.918 270.278 194.987 276.101C198.517 279.009 204.547 281.87 202.715 282.564C189.194 287.684 137.174 281.657 136.96 279.015C136.764 276.59 150.765 276.903 152.747 265.899C156.579 244.612 149.905 206.324 150.094 201.621C150.652 187.729 154.805 170.876 160 158.269C160.193 157.8 161.607 157.715 163.508 157.792L163.64 157.259C164.855 152.245 165.064 148.812 164.267 146.96C163.343 144.814 160.194 142.759 154.821 140.795C156.744 139.634 158.172 137.239 159.103 133.609L159.2 133.221C160.075 129.597 160.625 124.293 160.849 117.309Z" fill="white"/>
<path fill-rule="evenodd" clip-rule="evenodd" d="M162.755 193.652C163.327 186.659 163.294 183.968 164.267 177.02C164.549 175.005 164.128 158.441 160.629 161.088C159.318 162.08 159.84 164.292 159.214 165.811C154.019 178.419 150.652 187.729 150.094 201.621C149.807 208.756 149.328 215.925 149.904 223.043C150.925 235.657 160.995 215.172 162.755 193.652Z" fill="white"/>
<path fill-rule="evenodd" clip-rule="evenodd" d="M171.846 222.507C170.457 205.854 173.844 189.228 175.607 172.61C176.173 167.269 176.563 161.791 175.223 156.59C174.506 153.81 173.297 151.108 173.24 148.238C173.183 145.367 174.751 142.155 177.562 141.606C172.065 134.982 170.759 125.143 174.336 117.309C174.578 121.834 174.82 126.359 175.062 130.885C175.191 133.294 175.38 135.872 176.868 137.767C178.356 139.663 181.651 140.289 183.079 138.348C184.593 136.29 187.885 136.47 189.969 137.944C192.052 139.419 193.289 141.776 194.686 143.915C197.123 147.645 200.238 150.91 203.742 153.656C216.817 163.901 224.384 180.335 225.437 196.937C226.042 206.485 215.822 228.361 215.773 243.09C215.737 253.974 225.155 259.462 228.38 260.924C230.786 262.015 233.402 262.626 235.716 263.901C238.029 265.176 240.1 267.367 240.209 270.012C240.319 272.687 238.437 275.013 236.453 276.805C228.624 283.876 217.344 286.908 207.036 284.712C203.203 283.895 199.483 282.379 196.362 280.002C192.166 276.806 189.25 272.233 186.664 267.63C178.851 253.726 173.172 238.41 171.846 222.507Z" fill="white"/>
<path fill-rule="evenodd" clip-rule="evenodd" d="M148.512 72.2994C150.048 64.5607 153.41 57.3173 156.743 50.1591C158.384 46.6359 161.896 44.041 165.762 43.4955C164.556 44.3503 163.259 45.3396 162.959 46.7817C162.66 48.2237 164.15 49.9617 165.47 49.295C171.111 46.4473 178.602 47.8605 182.801 52.5645C184.219 54.1532 185.263 56.0306 186.295 57.8908C189.759 64.1378 193.335 70.9045 192.551 77.9953C192.318 80.1059 191.877 82.6874 193.582 83.9654C194.406 84.5832 194.154 85.8561 193.802 86.8207C190.199 96.6715 184.627 105.806 177.507 113.536C175.163 116.081 172.259 118.641 168.789 118.588C166.582 118.554 164.553 117.451 162.628 116.376C158.768 114.222 154.863 112.035 151.654 109.003C148.445 105.97 145.953 101.953 145.662 97.5608C145.443 94.247 146.456 90.7785 145.276 87.6716C144.688 86.1234 143.59 84.792 143.113 83.2066C142.636 81.6213 143.093 79.5196 144.675 79.0065C147.264 78.1669 147.984 74.9557 148.512 72.2994Z" fill="white"/>
<ellipse cx="181.333" cy="97.28" rx="2.98668" ry="2.98667" fill="#7D3BD1"/>
<path fill-rule="evenodd" clip-rule="evenodd" d="M124.578 281.745C125.51 280.895 126.389 280.093 125.987 279.015C123.48 279.23 121.309 281.447 121.18 283.926C121.05 286.405 122.977 288.831 125.449 289.299C144.311 292.87 163.722 293.61 182.807 291.485C187.405 290.973 192.584 289.924 194.987 286.023C194.256 285.05 192.762 285.713 191.697 286.386L191.317 286.63C187.559 288.997 182.975 289.654 178.501 290.018L177.664 290.084C160.894 291.337 143.969 290.553 127.392 287.756C125.187 287.383 122.346 286.07 122.897 283.932C123.117 283.077 123.863 282.397 124.578 281.745ZM175.083 131.277L174.336 117.309C170.759 125.143 172.065 134.982 177.562 141.606C174.751 142.155 173.183 145.367 173.24 148.238C173.28 150.246 173.884 152.172 174.489 154.1C174.748 154.927 175.008 155.755 175.223 156.59C176.563 161.791 176.173 167.269 175.607 172.611L175.53 173.323C175.098 177.299 174.577 181.275 174.057 185.252C172.434 197.661 170.81 210.076 171.846 222.507C173.172 238.41 178.851 253.726 186.664 267.63C189.251 272.233 192.166 276.806 196.363 280.002C199.483 282.379 203.203 283.895 207.036 284.712C217.344 286.908 228.624 283.877 236.453 276.805C238.437 275.013 240.319 272.687 240.209 270.012C240.1 267.367 238.029 265.176 235.716 263.901C234.369 263.159 232.92 262.642 231.47 262.124C230.428 261.752 229.386 261.38 228.38 260.924C220.789 257.483 215.869 248.888 216.736 240.583C212.456 245.061 214.794 252.885 219.415 257.009C222.394 259.667 226.023 261.361 229.661 263.06C231.666 263.996 233.674 264.934 235.578 266.035C236.68 266.672 237.849 267.51 238.063 268.767C238.245 269.837 237.667 270.881 237.041 271.767C232.589 278.061 224.886 281.283 217.295 282.563C212.318 283.403 206.998 283.497 202.449 281.304C198.51 279.405 195.539 275.987 192.949 272.442L192.614 271.979C179.647 253.968 172.838 231.585 173.572 209.385C173.81 202.181 174.814 195.008 175.818 187.844C177.251 177.604 178.683 167.382 177.87 157.111L191.605 147.017C192.597 146.313 194.158 145.744 194.759 146.781C196.726 150.179 199.731 152.757 202.733 155.332C203.774 156.225 204.815 157.118 205.812 158.044C216.933 168.38 222.874 183.636 223.392 198.829C223.909 214.022 219.318 229.107 211.94 242.389C210.039 245.812 205.196 245.773 201.318 245.278L201.216 245.265C200.908 245.223 200.595 245.164 200.35 244.976C199.82 244.568 199.853 243.791 199.973 243.114L200.005 242.947C202.385 231.077 204.667 219.035 203.971 206.947C203.275 194.859 199.292 182.541 190.724 174.007C193.485 179.543 195.896 185.254 197.939 191.094C199.532 195.653 200.907 200.317 201.486 205.112C202.466 213.238 201.139 221.339 199.808 229.464C199.003 234.376 198.197 239.298 197.899 244.238L197.893 244.345C197.854 245.062 197.872 245.841 198.346 246.371C198.76 246.835 199.415 246.98 200.024 247.1L200.178 247.13C204.718 248.009 210.412 248.354 212.799 244.413C221.412 230.193 226.49 213.539 225.437 196.937C224.384 180.335 216.817 163.901 203.742 153.656L203.415 153.397C200.044 150.706 197.046 147.528 194.686 143.915C194.441 143.54 194.202 143.159 193.962 142.777C192.83 140.978 191.687 139.16 189.969 137.944C187.885 136.47 184.593 136.29 183.079 138.348L183.01 138.438C181.547 140.269 178.333 139.633 176.868 137.768C175.46 135.974 175.215 133.57 175.083 131.277ZM155.111 141.092C160.49 134.424 162.392 125.115 160.058 116.882L157.963 130.363C157.572 132.827 157.067 135.375 155.463 137.271C153.763 139.279 150.383 140.118 148.492 138.288L148.4 138.202C146.32 136.33 143.014 137.933 140.715 139.681L140.512 139.838C133.232 145.543 126.083 151.556 120.445 158.877C114.164 167.032 109.957 176.551 106.151 186.115L105.449 187.89C103.053 193.995 100.818 200.29 100.698 206.833C100.573 213.639 103.139 220.862 108.796 224.678C111.787 226.696 111.633 231.057 111.148 234.623L109.239 248.651C108.512 254.052 107.905 259.696 109.919 264.744C112.521 271.265 119.142 275.513 125.995 277.128C132.575 278.678 139.436 278.181 146.181 277.593L157.015 276.642C157.793 276.571 158.602 276.464 159.216 275.99C159.823 275.52 160.133 274.771 160.379 274.045C163.097 266.007 160.977 257.396 158.554 249.123L157.188 244.509C154.693 235.967 152.693 227.221 152.368 218.333C151.905 205.705 154.824 193.237 157.874 180.956L165.4 150.743C166.034 148.197 164.531 145.505 162.413 143.947C160.436 142.493 158.014 141.816 155.623 141.219L155.111 141.092ZM137.109 145.366C138.455 144.258 140.435 143.178 141.799 144.264C147.347 148.683 153.913 151.824 160.842 153.376C161.825 153.596 161.925 154.902 161.761 155.923L161.732 156.09C160.413 162.889 158.587 169.627 156.762 176.358C153.054 190.04 149.353 203.691 149.944 217.752C150.38 228.154 153.165 238.278 156.122 248.286L157.304 252.266C159.051 258.187 160.667 264.551 158.593 270.34C158.096 271.726 157.334 273.105 156.063 273.854C155.069 274.44 153.88 274.575 152.731 274.696L146.117 275.394C139.64 276.073 133.037 276.662 126.712 275.161C120.129 273.599 113.791 269.31 111.67 262.906C110.132 258.261 110.969 253.256 111.782 248.392C111.835 248.076 111.888 247.76 111.94 247.446L112.032 246.884C112.969 241.098 113.497 235.247 113.612 229.388C121.079 237.798 127.49 247.139 132.648 257.123C133.019 257.842 134.11 257.51 134.8 257.084L135.331 256.756C138.163 255 141.007 253.14 142.988 250.477C145.092 247.648 146.024 243.661 144.341 240.565L134.083 221.69C130.391 214.886 126.641 207.54 127.499 199.866C128.047 194.964 130.436 190.497 132.891 186.194L139.197 175.197L138.579 175.863C132.411 182.554 126.431 190.118 125.492 199.119C124.791 205.847 127.032 212.52 129.847 218.693L130.121 219.289C133.155 225.826 136.783 232.067 140.472 238.264L141.857 240.587C143.364 243.111 142.698 246.471 141.011 248.88C139.433 251.134 137.119 252.74 134.807 254.256L134.329 254.568L129.842 246.913C125.913 240.218 121.848 233.484 116.18 228.181C115.17 227.236 114.107 226.333 113.044 225.432C110.381 223.171 107.718 220.912 105.884 217.971C101.092 210.289 103.244 200.34 106.358 191.799L106.55 191.278C113.022 173.854 122.738 157.203 137.109 145.366ZM209.351 251.084L197.012 248.414C196.309 248.268 195.498 248.174 194.987 248.647C195.101 249.394 195.912 249.797 196.668 250.062L196.841 250.121C200.846 251.44 204.978 252.777 209.205 252.533C209.706 252.504 210.352 252.309 210.347 251.826C210.342 251.389 209.795 251.18 209.351 251.084ZM174.933 159.993L174.733 158.269C172.273 158.684 169.763 158.818 167.271 158.666L167.197 158.662C166.464 158.617 165.693 158.569 165.049 158.908C164.384 159.257 163.992 160.204 164.495 160.757C164.826 161.12 165.379 161.166 165.876 161.187L166.108 161.197C169.121 161.321 172.278 161.376 174.933 159.993ZM142.858 141.951C142.437 140.693 143.962 139.504 145.286 139.638C146.41 139.752 147.362 140.433 148.292 141.099C148.326 141.123 148.359 141.147 148.393 141.171L148.786 141.448C151.889 143.596 155.595 144.627 159.285 145.509L160.549 145.807C162.48 146.259 162.835 148.765 162.741 150.778L162.729 150.999C162.717 151.183 162.701 151.38 162.587 151.525C162.356 151.817 161.898 151.731 161.543 151.616L161.175 151.497C155.037 149.501 148.872 147.186 143.855 143.146C143.445 142.816 143.025 142.449 142.858 141.951ZM165.528 43.6627L165.762 43.4955C161.896 44.041 158.384 46.6359 156.743 50.1591C153.41 57.3173 150.048 64.5607 148.512 72.2994C147.984 74.9557 147.264 78.1669 144.675 79.0065L144.578 79.0406C143.074 79.607 142.646 81.6543 143.113 83.2066C143.374 84.074 143.821 84.8653 144.269 85.6578C144.639 86.3137 145.01 86.9704 145.276 87.6716C146.031 89.659 145.888 91.7944 145.745 93.9426C145.664 95.1527 145.583 96.3667 145.662 97.5608C145.953 101.953 148.445 105.97 151.654 109.003C154.553 111.742 158.019 113.791 161.507 115.749L162.628 116.376C164.553 117.451 166.582 118.554 168.789 118.588C172.259 118.641 175.163 116.081 177.507 113.536L177.851 113.161C184.807 105.511 190.257 96.5126 193.802 86.8207C194.154 85.8561 194.406 84.5832 193.582 83.9654C192.144 82.8879 192.232 80.8837 192.435 79.0164L192.551 77.9953C193.315 71.0911 189.944 64.4941 186.568 58.3851L186.123 57.5807C185.146 55.8229 184.141 54.0649 182.801 52.5645C178.602 47.8605 171.111 46.4473 165.47 49.295C164.15 49.9617 162.66 48.2237 162.96 46.7817C163.239 45.4326 164.393 44.4798 165.528 43.6627ZM148.265 86.8085C148.74 83.962 149.217 81.1023 149.113 78.2558C150.818 83.0488 156.567 86.003 161.486 84.6138C162.008 84.4665 162.518 84.2776 163.028 84.0888C163.853 83.7839 164.675 83.4794 165.542 83.3515C166.946 83.1444 168.591 83.5498 169.262 84.7926L169.331 84.9155C171.287 88.3208 176.361 88.5809 179.995 86.9811C181.872 86.1548 183.56 84.9832 185.249 83.8113C186.869 82.6872 188.489 81.5628 190.276 80.7425C190.573 81.7892 190.297 82.8721 190.044 83.8625C189.824 84.7282 189.621 85.5234 189.835 86.1621C189.969 85.9775 190.096 85.7972 190.218 85.6251C190.996 84.5209 191.539 83.7515 192.255 84.2928C193.083 84.9185 193.024 86.6408 192.255 87.5258C191.983 87.8397 191.662 88.118 191.342 88.3952C190.759 88.8996 190.181 89.4002 189.909 90.1046C186.406 99.1612 180.936 107.46 173.982 114.269C173.13 115.103 172.222 115.937 171.096 116.34C168.701 117.197 166.118 115.902 163.907 114.646L162.845 114.04C156.457 110.358 149.812 105.907 147.953 98.8827C146.908 94.9367 147.584 90.8861 148.265 86.8085ZM168.356 87.3019L168.601 87.1345C168.351 85.8427 166.28 85.9406 165.277 86.828C163.556 88.3513 163.332 91.2304 164.871 92.9263C166.41 94.6223 169.482 94.7422 171.092 93.11C171.127 92.3941 170.189 92.0124 169.451 92.0832C169.219 92.1055 168.986 92.1509 168.753 92.1962C168.246 92.2949 167.742 92.3932 167.255 92.2509C166.16 91.9303 165.793 90.4979 166.238 89.4787C166.645 88.5481 167.498 87.8929 168.356 87.3019ZM146.397 80.1183L146.775 80.1172C147.323 80.124 148.076 80.1978 147.953 80.7425C147.557 82.4963 147.375 84.5415 147.279 85.9431L147.198 87.2274C146.964 87.3177 146.294 86.3972 145.908 85.8672C145.829 85.7589 145.762 85.6668 145.713 85.6031L145.662 85.5402C145.56 85.3182 145.422 85.0556 145.271 84.7677C144.317 82.9491 142.832 80.1183 146.397 80.1183ZM152.552 64.7868C152.855 63.78 153.199 62.7103 154.02 62.0492C154.841 61.3881 156.298 61.4143 156.759 62.3598C157.84 64.576 160.314 65.7502 162.699 66.4166C169.742 68.385 177.603 67.2437 183.786 63.3553C184.99 62.5986 186.671 63.1051 187.645 64.1374C188.538 65.0838 188.969 66.3554 189.292 67.6207L189.378 67.9653C190.101 70.9412 190.55 73.9826 190.72 77.0394C190.747 77.525 190.757 78.0476 190.487 78.4534C190.325 78.6984 190.077 78.8725 189.835 79.0407L189.458 79.3016C188.387 80.0391 187.278 80.7484 186.027 81.0902C184.627 81.4722 182.99 81.3125 181.936 80.3205L181.812 80.2065C179.143 77.8057 174.826 77.4305 171.788 79.3584C171.397 79.6062 171.019 79.8899 170.642 80.1735C169.674 80.9002 168.707 81.6264 167.526 81.7481C165.762 81.9297 164.335 80.7432 162.916 79.5622C162.414 79.1451 161.913 78.7286 161.399 78.3733C158.554 76.4089 154.537 76.2907 151.58 78.0844C149.459 76.5597 149.983 73.3367 150.732 70.8436L152.552 64.7868ZM183.973 75.418L174.778 74.6644C174.253 74.6243 173.698 74.6106 173.258 74.8724C172.787 75.1529 172.607 75.8855 173.067 76.1814C173.246 76.2962 173.472 76.3188 173.688 76.338L183.014 77.165C184.299 77.2693 185.84 77.2159 186.453 76.1745C185.819 75.5944 184.858 75.4906 183.973 75.418ZM162.953 75.7165C163.092 75.1781 162.78 74.6268 162.411 74.2038C160.262 71.7391 155.67 72.0094 153.839 74.7085C153.483 75.2338 153.483 76.2359 154.127 76.1949C155.889 73.9613 159.858 73.936 161.65 76.1469C162.003 76.5826 162.813 76.255 162.953 75.7165ZM188.16 74.0934C188.31 73.9406 188.262 73.3188 187.843 73.0803C187.532 72.9038 186.655 72.8185 186.509 73.121C186.178 73.7848 187.701 74.5616 188.16 74.0934ZM188.114 71.8465C188.271 71.4604 187.526 70.3772 187.097 70.3755C186.72 70.374 186.251 71.4767 186.502 71.84C186.759 72.2122 187.973 72.1926 188.114 71.8465ZM185.506 71.2217C186.021 71.1454 186.431 70.0143 186.027 69.7163C185.625 69.4198 184.456 69.7305 184.328 70.1011C184.196 70.4832 184.954 71.3036 185.506 71.2217ZM154.235 69.8896C154.769 70.6323 156.115 70.4973 156.491 69.6634C156.867 68.8296 156.077 67.7296 155.167 67.8208C154.258 67.912 153.701 69.1469 154.235 69.8896ZM186.041 67.9838C186.631 68.2353 187.513 68.1733 187.564 67.5609C187.516 66.7417 186.615 66.613 186.027 66.7133C185.556 66.7935 185.565 67.7805 186.041 67.9838ZM184.599 67.9638C185.025 67.727 184.914 66.4364 184.438 66.2736C183.923 66.0972 182.537 66.4459 182.617 67.2855C182.697 68.125 184.115 68.2329 184.599 67.9638ZM155.979 67.5053C156.493 68.0679 157.595 67.8253 157.825 67.0988C158.055 66.3723 157.294 65.5391 156.55 65.703C155.806 65.8668 155.465 66.9427 155.979 67.5053ZM154.45 65.8305C154.861 65.4824 154.92 64.8573 154.68 64.5296C154.197 63.8682 153.793 63.871 153.462 64.1967C153.051 64.6025 153.032 65.286 153.197 65.9924C153.259 66.257 154.032 66.1849 154.45 65.8305ZM177.676 98.4429C176.395 100.123 174.48 101.327 172.39 101.768C172.335 101.779 172.28 101.79 172.224 101.802C171.792 101.889 171.349 101.979 171.016 102.256C170.64 102.568 170.513 103.226 170.91 103.513C171.131 103.674 171.431 103.667 171.705 103.642C175.269 103.322 178.576 101.011 180.053 97.8094C179.951 97.3029 179.244 97.129 178.768 97.3491C178.351 97.5424 178.068 97.9209 177.791 98.29C177.753 98.3414 177.715 98.3925 177.676 98.4429Z" fill="#00160A"/>
<path fill-rule="evenodd" clip-rule="evenodd" d="M187.758 194.694C188.686 194.106 189.785 195.263 190.047 196.341C190.31 197.419 190.345 198.716 191.245 199.348C192.166 199.995 193.403 199.539 194.504 199.325C195.604 199.112 197.124 199.527 197.12 200.663C197.119 200.944 197.015 201.213 196.907 201.471C195.955 203.763 194.604 205.883 192.935 207.705C193.288 209.176 193.827 210.599 194.537 211.931C195.011 212.821 193.948 213.89 192.95 213.843C191.953 213.797 191.123 213.097 190.315 212.503C189.507 211.909 188.497 211.37 187.55 211.691C186.733 211.968 186.247 212.788 185.712 213.472C185.177 214.157 184.34 214.801 183.524 214.522C182.536 214.185 182.399 212.831 182.549 211.786C182.746 210.416 183.128 209.074 183.681 207.808C184.071 206.914 183.43 205.876 182.633 205.325C181.835 204.775 180.87 204.497 180.115 203.887C179.36 203.278 178.877 202.107 179.455 201.324C179.736 200.943 180.196 200.75 180.641 200.602C182.126 200.108 183.709 199.919 185.267 200.05C185.862 198.611 186.458 197.173 187.053 195.735C187.216 195.34 187.4 194.921 187.758 194.694V194.694Z" fill="#7D3BD1"/>
<path fill-rule="evenodd" clip-rule="evenodd" d="M143.855 143.146C143.445 142.815 143.025 142.449 142.858 141.951C142.437 140.693 143.962 139.504 145.286 139.638C146.41 139.752 147.362 140.432 148.292 141.099C148.457 141.217 148.622 141.334 148.786 141.448C152.243 143.842 156.451 144.848 160.549 145.807C162.551 146.276 162.859 148.953 162.729 150.999C162.717 151.183 162.701 151.38 162.587 151.525C162.356 151.817 161.898 151.731 161.543 151.616C155.284 149.592 148.972 147.267 143.855 143.146ZM142.988 250.477C145.092 247.648 146.024 243.661 144.341 240.565L134.22 221.941C130.484 215.068 126.63 207.635 127.499 199.866C128.083 194.644 130.755 189.916 133.371 185.354L139.197 175.197C132.815 182.052 126.462 189.818 125.492 199.119C124.768 206.064 127.18 212.951 130.121 219.289C133.534 226.644 137.7 233.623 141.857 240.586C143.364 243.111 142.698 246.47 141.011 248.88C139.324 251.29 136.796 252.958 134.329 254.568L130.313 247.716C126.235 240.759 122.075 233.696 116.18 228.181C115.17 227.236 114.107 226.333 113.044 225.432C110.38 223.171 107.718 220.912 105.884 217.971C100.994 210.133 103.335 199.933 106.55 191.278C113.022 173.854 122.738 157.203 137.109 145.366C138.455 144.258 140.435 143.178 141.799 144.264C147.347 148.683 153.913 151.824 160.842 153.376C161.879 153.608 161.933 155.05 161.732 156.09C160.413 162.888 158.587 169.627 156.762 176.358C153.054 190.039 149.353 203.691 149.944 217.752C150.421 229.12 153.703 240.155 156.948 251.069C157.015 251.294 157.083 251.52 157.15 251.745C158.953 257.812 160.728 264.381 158.593 270.34C158.096 271.726 157.334 273.105 156.063 273.854C155.069 274.44 153.88 274.575 152.731 274.696L146.909 275.311C140.18 276.021 133.295 276.724 126.712 275.161C120.129 273.599 113.791 269.31 111.67 262.906C110.132 258.261 110.969 253.256 111.782 248.392C111.866 247.887 111.95 247.384 112.031 246.884C112.969 241.098 113.497 235.247 113.612 229.388C121.079 237.798 127.49 247.139 132.648 257.123C133.019 257.842 134.11 257.51 134.8 257.084C137.804 255.229 140.883 253.307 142.988 250.477Z" fill="white"/>
<path fill-rule="evenodd" clip-rule="evenodd" d="M191.749 144.399C191.797 143.919 191.52 143.474 191.255 143.072C190.475 141.891 189.657 140.674 188.455 139.931C187.253 139.188 185.55 139.058 184.513 140.019C182.518 141.868 180.196 143.361 177.689 144.411C176.04 145.101 175.21 147.052 175.278 148.842C175.346 150.632 176.126 152.307 176.892 153.925C177.025 154.207 177.202 154.523 177.509 154.576C177.765 154.621 178.007 154.459 178.217 154.305C182.728 151.003 187.238 147.701 191.749 144.399Z" fill="white"/>
<path fill-rule="evenodd" clip-rule="evenodd" d="M85.0031 79.8861C85.1901 79.6528 85.2723 79.3528 85.2306 79.0569C85.1905 78.758 85.0308 78.4882 84.7879 78.3091C84.7879 78.3091 81.725 76.184 81.5439 76.263C81.3627 76.3421 84.1367 79.1957 84.1367 79.1957C78.9308 85.6512 69.5579 86.8629 62.8786 81.9439C56.1993 77.0249 54.5856 67.722 59.2186 60.8447L79.505 76.1745C79.751 76.3557 80.0974 76.3034 80.2788 76.0576C80.4602 75.8119 59.8793 59.9575 59.8793 59.9575C59.6392 59.7759 59.3353 59.6999 59.0378 59.747C58.7403 59.7941 58.4749 59.9604 58.3029 60.2074C53.2145 67.5702 54.9209 77.6419 62.1512 82.9218C69.3341 88.2608 79.4666 86.9148 85.0031 79.8861ZM63.8272 81.647C69.5243 85.8694 77.4588 85.3188 82.5143 80.3504C82.7336 80.1361 82.7372 79.7852 82.5224 79.5665C82.3075 79.3479 81.9555 79.3443 81.7362 79.5585C77.0601 84.1263 69.7504 84.6362 64.482 80.762C59.2136 76.8878 57.5436 69.7747 60.5401 63.9718C60.6395 63.795 60.6342 63.5783 60.5262 63.4065C60.4183 63.2348 60.2249 63.1355 60.022 63.1477C59.8191 63.1598 59.639 63.2814 59.5524 63.4648C56.283 69.747 58.0982 77.4676 63.8272 81.647ZM64.7672 77.8306C64.7319 77.3502 64.852 76.8716 65.1049 76.4861C65.4098 76.0537 65.7867 75.6949 66.2137 75.4304C67.0209 74.9241 67.5012 75.0811 67.7617 75.3014C68.6106 76.0158 67.95 77.9445 67.556 78.5566C67.243 79.0534 66.7431 79.3513 66.2081 79.36C65.8999 79.3621 65.5992 79.2507 65.3506 79.042C65.0122 78.7539 64.7994 78.312 64.7672 77.8306ZM67.1473 76.253C66.6665 76.4113 66.2391 76.7333 65.9217 77.176C65.8177 77.3331 65.7675 77.5283 65.7806 77.7248C65.7891 77.8746 65.8528 78.0132 65.9558 78.1061C66.2311 78.2823 66.5788 78.1762 66.7412 77.8666C67.0162 77.3883 67.1578 76.8255 67.1473 76.253ZM70.5287 81.057C70.998 81.107 71.467 80.961 71.8123 80.6576C72.1602 80.359 72.3795 79.9505 72.4285 79.5096C72.5108 78.8145 72.2087 76.9308 71.037 76.8062C70.6689 76.7667 70.1328 76.8971 69.6 77.7243C69.3156 78.1604 69.1258 78.6453 69.0417 79.1509C68.9852 79.5911 69.1026 80.0355 69.3717 80.3994C69.6379 80.7661 70.06 81.006 70.5287 81.057ZM70.9075 77.8895C71.1971 78.3405 71.334 78.8638 71.3 79.3899C71.2823 79.5705 71.1943 79.7387 71.0529 79.862C70.948 79.9598 70.8022 80.0084 70.6553 79.9946C70.5099 79.9741 70.3807 79.8963 70.2998 79.7807C70.1914 79.6307 70.1456 79.4484 70.1708 79.2685C70.2626 78.7493 70.5195 78.2685 70.9075 77.8895ZM74.8746 76.0307C75.912 75.5718 77.1096 77.1105 77.3927 77.774V77.7723C77.7978 78.6318 77.4474 79.664 76.6082 80.0828C76.416 80.1688 76.2084 80.2133 75.9986 80.2133C75.7639 80.212 75.5322 80.1586 75.3197 80.0569C74.9136 79.8621 74.5917 79.5219 74.415 79.1009C74.1324 78.4386 73.8373 76.4896 74.8746 76.0307ZM75.7717 79.055C75.8971 79.1179 76.0426 79.1237 76.1724 79.0711C76.4617 78.8954 76.5616 78.5165 76.3976 78.2163C76.1594 77.7289 75.7818 77.3269 75.3148 77.0635C75.1858 77.5925 75.2175 78.1491 75.4057 78.6592C75.4762 78.8324 75.6064 78.9733 75.7717 79.055ZM62.4053 66.5737C61.965 66.5176 61.5207 66.6351 61.1566 66.9037C60.79 67.1702 60.55 67.5922 60.4986 68.0608C60.4348 69.0395 61.1285 69.8887 62.05 69.9602C62.1313 69.9694 62.2129 69.9738 62.2945 69.9733C63.1088 69.9733 64.6426 69.6223 64.7555 68.568C64.8743 67.3956 63.1008 66.6566 62.4053 66.5737ZM62.1672 68.8316C61.8345 68.8264 61.5662 68.5407 61.5621 68.1874C61.5822 68.0419 61.6602 67.9124 61.7761 67.8319C61.899 67.7418 62.0452 67.6945 62.1945 67.6967C62.2255 67.6967 62.2566 67.6967 62.2887 67.7023C62.8091 67.7941 63.2911 68.0516 63.6706 68.4408C63.2178 68.73 62.693 68.8663 62.1656 68.8316H62.1672ZM61.4793 74.1465C61.2955 73.7327 61.3048 73.2605 61.5048 72.8539C61.7002 72.4467 62.0404 72.124 62.4613 71.9466C63.1227 71.662 65.0711 71.3724 65.5303 72.4073C65.9895 73.4423 64.4517 74.6495 63.7886 74.9336C63.5465 75.0384 63.285 75.0928 63.0205 75.0933C62.8305 75.0935 62.6416 75.0644 62.4607 75.007C62.0216 74.8747 61.663 74.5604 61.4793 74.1465ZM63.9356 72.7697C63.5838 72.7638 63.2339 72.8224 62.9039 72.9425H62.9056C62.7318 73.0125 62.5903 73.1431 62.5083 73.3092C62.4405 73.4337 62.4344 73.5819 62.4918 73.7113C62.5493 73.8408 62.6638 73.9372 62.8028 73.9731C62.9823 74.0262 63.1753 74.0135 63.346 73.9372C63.8333 73.6982 64.2352 73.3192 64.4987 72.8506C64.3183 72.7872 64.1269 72.7596 63.9356 72.7697Z" fill="#7D3BD1"/>
<path fill-rule="evenodd" clip-rule="evenodd" d="M262.73 241.166C262.543 240.933 262.461 240.633 262.503 240.337C262.543 240.038 262.703 239.768 262.945 239.589C262.945 239.589 266.008 237.464 266.19 237.543C266.371 237.622 263.597 240.476 263.597 240.476C268.803 246.931 278.175 248.143 284.855 243.224C291.534 238.305 293.148 229.002 288.515 222.125L268.228 237.455C267.982 237.636 267.636 237.583 267.455 237.338C267.273 237.092 287.854 221.238 287.854 221.238C288.094 221.056 288.398 220.98 288.696 221.027C288.993 221.074 289.258 221.24 289.43 221.487C294.519 228.85 292.812 238.922 285.582 244.202C278.399 249.541 268.267 248.195 262.73 241.166ZM283.906 242.927C278.209 247.149 270.275 246.599 265.219 241.63C265 241.416 264.996 241.065 265.211 240.847C265.426 240.628 265.778 240.624 265.997 240.839C270.673 245.406 277.983 245.916 283.251 242.042C288.52 238.168 290.19 231.055 287.193 225.252C287.094 225.075 287.099 224.858 287.207 224.687C287.315 224.515 287.509 224.416 287.711 224.428C287.914 224.44 288.094 224.561 288.181 224.745C291.45 231.027 289.635 238.748 283.906 242.927ZM282.966 239.111C283.002 238.63 282.881 238.152 282.629 237.766C282.324 237.334 281.947 236.975 281.52 236.71C280.712 236.204 280.232 236.361 279.972 236.581C279.123 237.296 279.783 239.224 280.177 239.837C280.49 240.333 280.99 240.631 281.525 240.64C281.834 240.642 282.134 240.531 282.383 240.322C282.721 240.034 282.934 239.592 282.966 239.111ZM280.586 237.533C281.067 237.691 281.494 238.013 281.812 238.456C281.916 238.613 281.966 238.808 281.953 239.005C281.944 239.155 281.881 239.293 281.778 239.386C281.502 239.562 281.155 239.456 280.992 239.147C280.717 238.668 280.576 238.105 280.586 237.533ZM277.205 242.337C276.735 242.387 276.266 242.241 275.921 241.938C275.573 241.639 275.354 241.23 275.305 240.79C275.223 240.095 275.525 238.211 276.696 238.086C277.064 238.047 277.601 238.177 278.133 239.004C278.418 239.44 278.608 239.925 278.692 240.431C278.748 240.871 278.631 241.315 278.362 241.679C278.096 242.046 277.673 242.286 277.205 242.337ZM276.826 239.169C276.536 239.621 276.399 240.144 276.433 240.67C276.451 240.851 276.539 241.019 276.68 241.142C276.785 241.24 276.931 241.288 277.078 241.275C277.223 241.254 277.353 241.176 277.434 241.061C277.542 240.911 277.588 240.728 277.563 240.549C277.471 240.029 277.214 239.548 276.826 239.169ZM272.859 237.311C271.821 236.852 270.624 238.391 270.341 239.054V239.052C269.936 239.912 270.286 240.944 271.125 241.363C271.317 241.449 271.525 241.493 271.735 241.493C271.97 241.492 272.201 241.439 272.414 241.337C272.82 241.142 273.142 240.802 273.318 240.381C273.601 239.719 273.896 237.77 272.859 237.311ZM271.962 240.335C271.836 240.398 271.691 240.404 271.561 240.351C271.272 240.175 271.172 239.796 271.336 239.496C271.574 239.009 271.952 238.607 272.419 238.344C272.548 238.872 272.516 239.429 272.328 239.939C272.257 240.112 272.127 240.253 271.962 240.335ZM285.328 227.854C285.768 227.798 286.213 227.915 286.577 228.184C286.943 228.45 287.183 228.872 287.235 229.341C287.299 230.32 286.605 231.169 285.683 231.24C285.602 231.249 285.521 231.254 285.439 231.253C284.625 231.253 283.091 230.902 282.978 229.848C282.859 228.676 284.633 227.937 285.328 227.854ZM285.566 230.112C285.899 230.106 286.167 229.821 286.171 229.467C286.151 229.322 286.073 229.192 285.957 229.112C285.834 229.022 285.688 228.975 285.539 228.977C285.508 228.977 285.477 228.977 285.445 228.982C284.924 229.074 284.442 229.332 284.063 229.721C284.516 230.01 285.04 230.146 285.568 230.112H285.566ZM286.254 235.427C286.438 235.013 286.429 234.54 286.229 234.134C286.033 233.727 285.693 233.404 285.272 233.227C284.611 232.942 282.662 232.652 282.203 233.687C281.744 234.722 283.282 235.929 283.945 236.214C284.187 236.318 284.448 236.373 284.713 236.373C284.903 236.374 285.092 236.344 285.273 236.287C285.712 236.155 286.07 235.84 286.254 235.427ZM283.798 234.05C284.15 234.044 284.5 234.102 284.83 234.222H284.828C285.002 234.293 285.143 234.423 285.225 234.589C285.293 234.714 285.299 234.862 285.242 234.991C285.184 235.121 285.07 235.217 284.931 235.253C284.751 235.306 284.558 235.293 284.387 235.217C283.9 234.978 283.498 234.599 283.235 234.131C283.415 234.067 283.607 234.04 283.798 234.05Z" fill="#7D3BD1"/>
<ellipse cx="155.733" cy="99.4133" rx="2.98666" ry="2.98666" fill="#7D3BD1"/>
<path fill-rule="evenodd" clip-rule="evenodd" d="M148.378 248.832C148.758 249.778 147.513 254.171 144.264 257.319C141.015 260.468 136.798 261.215 136.452 260.352C136.106 259.49 140.833 257.794 143.816 254.72C146.799 251.646 147.999 247.886 148.378 248.832Z" fill="#00160A"/>
</svg>
