<svg width="40" height="40" viewBox="0 0 40 40" fill="none" xmlns="http://www.w3.org/2000/svg">
<circle cx="20" cy="20" r="20" fill="#A9FFB2"/>
<path d="M15 27C16.1046 27 17 26.1046 17 25C17 23.8954 16.1046 23 15 23C13.8954 23 13 23.8954 13 25C13 26.1046 13.8954 27 15 27Z" stroke="#3E9141" stroke-width="2" stroke-linecap="round" stroke-linejoin="round"/>
<path d="M25 27C26.1046 27 27 26.1046 27 25C27 23.8954 26.1046 23 25 23C23.8954 23 23 23.8954 23 25C23 26.1046 23.8954 27 25 27Z" stroke="#3E9141" stroke-width="2" stroke-linecap="round" stroke-linejoin="round"/>
<path d="M21 14H26L29 19M13 25H11V21L13 25ZM10 13H21V25L10 13ZM17 25H23H17ZM27 25H29V19H21L27 25Z" stroke="#3E9141" stroke-width="2" stroke-linecap="round" stroke-linejoin="round"/>
<path d="M11 17H15" stroke="#3E9141" stroke-width="2" stroke-linecap="round" stroke-linejoin="round"/>
</svg>
