<svg width="20" height="20" viewBox="0 0 20 20" fill="none" xmlns="http://www.w3.org/2000/svg">
<path d="M3.33333 5H7.855C8.00053 5.0001 8.14349 5.03831 8.26966 5.11083C8.39584 5.18335 8.50082 5.28764 8.57417 5.41333L9.46083 6.9325C9.6312 7.22464 9.85906 7.47918 10.1306 7.68072C10.4022 7.88225 10.7119 8.02659 11.0408 8.105L14.9383 9.03333C15.6676 9.20688 16.3172 9.62122 16.782 10.2094C17.2468 10.7976 17.4997 11.5253 17.5 12.275V14.1667C17.5 14.3877 17.4122 14.5996 17.2559 14.7559C17.0996 14.9122 16.8877 15 16.6667 15H3.33333C3.11232 15 2.90036 14.9122 2.74408 14.7559C2.5878 14.5996 2.5 14.3877 2.5 14.1667V5.83333C2.5 5.61232 2.5878 5.40036 2.74408 5.24408C2.90036 5.0878 3.11232 5 3.33333 5V5Z" stroke="#959595" stroke-width="2" stroke-linecap="round" stroke-linejoin="round"/>
<path d="M11.6666 10.8333L12.5 9.16666" stroke="#959595" stroke-width="2" stroke-linecap="round" stroke-linejoin="round"/>
<path d="M6.66667 15V14.1667C6.66667 13.2826 6.31548 12.4348 5.69036 11.8097C5.06523 11.1845 4.21739 10.8333 3.33333 10.8333H2.5" stroke="#959595" stroke-width="2" stroke-linecap="round" stroke-linejoin="round"/>
<path d="M8.33337 10L9.58337 7.5" stroke="#959595" stroke-width="2" stroke-linecap="round" stroke-linejoin="round"/>
</svg>
