<svg width="84" height="34" viewBox="0 0 84 34" fill="none" xmlns="http://www.w3.org/2000/svg">
<path d="M9.70312 9.65625C10.4844 9.65625 11.7578 9.82812 13.5234 10.1719C13.8828 10.2344 14.1797 10.2656 14.4141 10.2656C14.6797 10.2656 15.1953 10.125 15.9609 9.84375C16.3203 9.70312 16.625 9.63281 16.875 9.63281C17.5938 9.63281 18.3203 10.0938 19.0547 11.0156C19.6484 11.75 20.1328 12.5547 20.5078 13.4297C20.8828 14.3047 21.0703 15.0625 21.0703 15.7031C21.0703 16.3281 20.8516 16.8516 20.4141 17.2734C19.9766 17.6797 19.4297 17.8828 18.7734 17.8828C18.2266 17.8828 17.7344 17.75 17.2969 17.4844C16.875 17.2188 16.1875 16.6328 15.2344 15.7266C14.2344 14.7578 13.4062 14.2734 12.75 14.2734C12.3125 14.2734 11.9297 14.4375 11.6016 14.7656C11.2891 15.0781 11.1328 15.4531 11.1328 15.8906C11.1328 16.6562 11.8672 17.375 13.3359 18.0469C15.9766 19.2344 18 20.5312 19.4062 21.9375C20.5938 23.125 21.1875 24.5781 21.1875 26.2969C21.1875 28.4688 20.2344 30.2812 18.3281 31.7344C16.6875 33 14.6797 33.6328 12.3047 33.6328C11.6953 33.6328 10.5859 33.5312 8.97656 33.3281C7.46094 33.1562 6.60938 33.0703 6.42188 33.0703C6.21875 33.0703 5.98438 33.0938 5.71875 33.1406C5.26562 33.2031 4.9375 33.2344 4.73438 33.2344C4 33.2344 3.42188 33.0469 3 32.6719C2.35938 32.0938 1.76562 31.1875 1.21875 29.9531C0.671875 28.7031 0.398438 27.6328 0.398438 26.7422C0.398438 25.3047 0.960938 24.5859 2.08594 24.5859C2.52344 24.5859 2.92188 24.7344 3.28125 25.0312C3.65625 25.3125 4.42969 26.0781 5.60156 27.3281C6.24219 28.0156 6.77344 28.4922 7.19531 28.7578C7.61719 29.0078 8.07031 29.1328 8.55469 29.1328C9.07031 29.1328 9.48438 29 9.79688 28.7344C10.1094 28.4531 10.2656 28.0859 10.2656 27.6328C10.2656 26.9297 9.66406 26.2891 8.46094 25.7109C5.94531 24.4766 4.125 23.2031 3 21.8906C1.89062 20.5781 1.33594 19.0625 1.33594 17.3438C1.33594 15.4844 1.90625 13.8828 3.04688 12.5391C4.67188 10.6172 6.89062 9.65625 9.70312 9.65625Z" fill="black"/>
<path d="M57.6094 12.7266V18.4453C57.6094 21.8984 57.3516 24.3438 56.8359 25.7812C55.7266 28.8125 53.2891 31.0078 49.5234 32.3672C47.2422 33.2109 44.6641 33.6328 41.7891 33.6328C36.7734 33.6328 32.7578 32.4375 29.7422 30.0469C28.2734 28.875 27.2578 27.5156 26.6953 25.9688C26.1328 24.4219 25.8516 22.1875 25.8516 19.2656C25.8516 18.125 25.8906 16.25 25.9688 13.6406C26.0156 11.7969 26.0391 10.5781 26.0391 9.98438C26.0391 8.6875 25.9375 7.78906 25.7344 7.28906C25.5469 6.78906 25.125 6.32031 24.4688 5.88281C23.4375 5.21094 22.9219 4.46094 22.9219 3.63281C22.9219 3.02344 23.1797 2.48438 23.6953 2.01562C24.2266 1.54688 24.9219 1.22656 25.7812 1.05469C27.5 0.710938 29.5312 0.539062 31.875 0.539062C34.4531 0.539062 36.5938 0.734375 38.2969 1.125C39.9688 1.5 40.8047 2.35156 40.8047 3.67969C40.8047 4.33594 40.5625 4.85938 40.0781 5.25C39.9688 5.34375 39.5 5.58594 38.6719 5.97656C38.1719 6.19531 37.8281 6.59375 37.6406 7.17188C37.4688 7.75 37.3828 8.70312 37.3828 10.0312C37.3828 11.3906 37.3203 14.3281 37.1953 18.8438C37.1172 21.5312 37.8438 23.5781 39.375 24.9844C40.625 26.1406 42.2344 26.7188 44.2031 26.7188C45.4531 26.7188 46.5859 26.4922 47.6016 26.0391C48.6172 25.5703 49.3906 24.9375 49.9219 24.1406C50.3438 23.5312 50.6328 22.8516 50.7891 22.1016C50.9453 21.3516 51.0234 20.3281 51.0234 19.0312V13.875C50.9453 9.92188 50.8281 7.60938 50.6719 6.9375C50.5312 6.25 50.0312 5.71094 49.1719 5.32031C48.3594 4.96094 47.8047 4.63281 47.5078 4.33594C47.2109 4.03906 47.0625 3.67188 47.0625 3.23438C47.0625 2.29688 47.6172 1.61719 48.7266 1.19531C49.8516 0.757812 51.6484 0.539062 54.1172 0.539062C56.5391 0.539062 58.2891 0.75 59.3672 1.17188C60.4609 1.59375 61.0078 2.26562 61.0078 3.1875C61.0078 3.64062 60.9141 3.97656 60.7266 4.19531C60.5391 4.41406 60.0469 4.75 59.25 5.20312C58.4219 5.67188 57.9453 6.17969 57.8203 6.72656C57.7109 7.25781 57.6406 9.25781 57.6094 12.7266Z" fill="black"/>
<path d="M71.9531 9.65625C72.7344 9.65625 74.0078 9.82812 75.7734 10.1719C76.1328 10.2344 76.4297 10.2656 76.6641 10.2656C76.9297 10.2656 77.4453 10.125 78.2109 9.84375C78.5703 9.70312 78.875 9.63281 79.125 9.63281C79.8438 9.63281 80.5703 10.0938 81.3047 11.0156C81.8984 11.75 82.3828 12.5547 82.7578 13.4297C83.1328 14.3047 83.3203 15.0625 83.3203 15.7031C83.3203 16.3281 83.1016 16.8516 82.6641 17.2734C82.2266 17.6797 81.6797 17.8828 81.0234 17.8828C80.4766 17.8828 79.9844 17.75 79.5469 17.4844C79.125 17.2188 78.4375 16.6328 77.4844 15.7266C76.4844 14.7578 75.6562 14.2734 75 14.2734C74.5625 14.2734 74.1797 14.4375 73.8516 14.7656C73.5391 15.0781 73.3828 15.4531 73.3828 15.8906C73.3828 16.6562 74.1172 17.375 75.5859 18.0469C78.2266 19.2344 80.25 20.5312 81.6562 21.9375C82.8438 23.125 83.4375 24.5781 83.4375 26.2969C83.4375 28.4688 82.4844 30.2812 80.5781 31.7344C78.9375 33 76.9297 33.6328 74.5547 33.6328C73.9453 33.6328 72.8359 33.5312 71.2266 33.3281C69.7109 33.1562 68.8594 33.0703 68.6719 33.0703C68.4688 33.0703 68.2344 33.0938 67.9688 33.1406C67.5156 33.2031 67.1875 33.2344 66.9844 33.2344C66.25 33.2344 65.6719 33.0469 65.25 32.6719C64.6094 32.0938 64.0156 31.1875 63.4688 29.9531C62.9219 28.7031 62.6484 27.6328 62.6484 26.7422C62.6484 25.3047 63.2109 24.5859 64.3359 24.5859C64.7734 24.5859 65.1719 24.7344 65.5312 25.0312C65.9062 25.3125 66.6797 26.0781 67.8516 27.3281C68.4922 28.0156 69.0234 28.4922 69.4453 28.7578C69.8672 29.0078 70.3203 29.1328 70.8047 29.1328C71.3203 29.1328 71.7344 29 72.0469 28.7344C72.3594 28.4531 72.5156 28.0859 72.5156 27.6328C72.5156 26.9297 71.9141 26.2891 70.7109 25.7109C68.1953 24.4766 66.375 23.2031 65.25 21.8906C64.1406 20.5781 63.5859 19.0625 63.5859 17.3438C63.5859 15.4844 64.1562 13.8828 65.2969 12.5391C66.9219 10.6172 69.1406 9.65625 71.9531 9.65625Z" fill="black"/>
</svg>
